<?xml version="1.0" encoding="UTF-8" standalone="no"?>
<svg
   xmlns:dc="http://purl.org/dc/elements/1.1/"
   xmlns:cc="http://creativecommons.org/ns#"
   xmlns:rdf="http://www.w3.org/1999/02/22-rdf-syntax-ns#"
   xmlns:svg="http://www.w3.org/2000/svg"
   xmlns="http://www.w3.org/2000/svg"
   viewBox="0 0 310 299.375"
   height="299.375"
   width="310"
   xml:space="preserve"
   version="1.1"
   id="svg2"><metadata
     id="metadata8"><rdf:RDF><cc:Work
         rdf:about=""><dc:format>image/svg+xml</dc:format><dc:type
           rdf:resource="http://purl.org/dc/dcmitype/StillImage" /></cc:Work></rdf:RDF></metadata><defs
     id="defs6"><clipPath
       id="clipPath16"
       clipPathUnits="userSpaceOnUse"><path
         id="path18"
         d="m 0,239.5 248,0 L 248,0 0,0 0,239.5 Z" /></clipPath><clipPath
       id="clipPath28"
       clipPathUnits="userSpaceOnUse"><path
         id="path30"
         d="m 0,239.5 248,0 L 248,0 0,0 0,239.5 Z" /></clipPath><clipPath
       id="clipPath112"
       clipPathUnits="userSpaceOnUse"><path
         id="path114"
         d="m 0,239.5 248,0 L 248,0 0,0 0,239.5 Z" /></clipPath><clipPath
       id="clipPath336"
       clipPathUnits="userSpaceOnUse"><path
         id="path338"
         d="m 0,239.5 248,0 L 248,0 0,0 0,239.5 Z" /></clipPath></defs><g
     transform="matrix(1.25,0,0,-1.25,0,299.375)"
     id="g10"><g
       id="g12"><g
         clip-path="url(#clipPath16)"
         id="g14"><g
           transform="translate(230.2422,119.3408)"
           id="g20"><path
             id="path22"
             style="fill:#f9f9f9;fill-opacity:1;fill-rule:nonzero;stroke:none"
             d="m 0,0 c 0,-57.935 -46.965,-104.899 -104.899,-104.899 -57.935,0 -104.9,46.964 -104.9,104.899 0,57.935 46.965,104.9 104.9,104.9 C -46.965,104.9 0,57.935 0,0" /></g></g></g><g
       id="g24"><g
         clip-path="url(#clipPath28)"
         id="g26"><g
           transform="translate(183.1553,150.3105)"
           id="g32"><path
             id="path34"
             style="fill:#cbeffe;fill-opacity:1;fill-rule:nonzero;stroke:none"
             d="m 0,0 c 0,0 -33.359,-16.675 -13.521,-52.149 0,0 29.739,1.369 32.627,17.276 C 22.523,-16.052 4.861,-0.848 0,0" /></g><g
           transform="translate(147.457,173.2949)"
           id="g36"><path
             id="path38"
             style="fill:#cbeffe;fill-opacity:1;fill-rule:nonzero;stroke:none"
             d="m 0,0 c 0,0 -11.198,-12.026 -1.847,-22.889 0,0 3.679,7.434 5.597,9.701 2.02,2.386 8.645,6.678 8.645,6.678 C 7.815,-0.506 0,0 0,0" /></g><g
           transform="translate(159.8516,166.7847)"
           id="g40"><path
             id="path42"
             style="fill:#cbeffe;fill-opacity:1;fill-rule:nonzero;stroke:none"
             d="m 0,0 c 0,0 -6.45,-10.018 -9.334,-12.283 0,0 4.054,-2.374 5.905,-3.102 2.772,-1.088 8.244,0.53 8.244,0.53 0,0 1.944,6.294 -4.815,14.855" /></g><g
           transform="translate(202.3887,114.48)"
           id="g44"><path
             id="path46"
             style="fill:#cbeffe;fill-opacity:1;fill-rule:nonzero;stroke:none"
             d="m 0,0 c 0,0 -12.133,-18.131 -34.434,-16.33 -8.268,0.667 -21.142,5.021 -30.107,15.403 0,0 2.166,-10.622 7.276,-15.731 4.824,-4.822 14.202,-9.145 14.202,-9.145 0,0 -5.23,-5.413 -14.138,-4.429 -0.506,0.056 2.671,-2.614 6.954,-3.985 4.283,-1.37 9.672,-1.441 9.672,-1.441 0,0 -3.863,-5.998 -6.586,-6.318 C -51.957,-42.541 -4.771,-47.958 0,0" /></g><g
           transform="translate(174.6289,169.2319)"
           id="g48"><path
             id="path50"
             style="fill:#cbeffe;fill-opacity:1;fill-rule:nonzero;stroke:none"
             d="m 0,0 c 0,0 12.242,-1.526 12.56,-6.044 0.318,-4.519 4.021,-18.987 4.021,-18.987 0,0 -3.666,3.284 -10.78,6.369 -2.823,1.225 -15.223,1.36 -15.223,1.36 l -0.281,2.456 c 0,0 4.734,0.891 7.508,4.326 C 0.579,-7.085 1.663,-5.233 0,0" /></g><g
           transform="translate(191.457,144.042)"
           id="g52"><path
             id="path54"
             style="fill:none;stroke:#19a5ea;stroke-width:2;stroke-linecap:round;stroke-linejoin:miter;stroke-miterlimit:33;stroke-dasharray:23, 3, 2, 4, 444;stroke-dashoffset:0;stroke-opacity:1"
             d="M 0,0 C 15.725,-13.303 14.597,-35.505 1.669,-54.877 -6.384,-66.944 -22.078,-72.478 -36.229,-71.538" /></g><g
           transform="translate(161.8135,78.8223)"
           id="g56"><path
             id="path58"
             style="fill:none;stroke:#19a5ea;stroke-width:2;stroke-linecap:round;stroke-linejoin:miter;stroke-miterlimit:10;stroke-dasharray:none;stroke-opacity:1"
             d="M 0,0 C -2.193,-2.675 -3.464,-4.158 -6.586,-6.318" /></g><g
           transform="translate(161.8135,78.8223)"
           id="g60"><path
             id="path62"
             style="fill:none;stroke:#19a5ea;stroke-width:2;stroke-linecap:round;stroke-linejoin:miter;stroke-miterlimit:10;stroke-dasharray:none;stroke-opacity:1"
             d="M 0,0 C -6.496,-0.662 -12.824,2.438 -17.639,5.538" /></g><g
           transform="translate(144.1748,84.3599)"
           id="g64"><path
             id="path66"
             style="fill:none;stroke:#19a5ea;stroke-width:2;stroke-linecap:round;stroke-linejoin:miter;stroke-miterlimit:33;stroke-dasharray:12, 4, 4, 3;stroke-dashoffset:0;stroke-opacity:1"
             d="M 0,0 C 4.439,-0.744 10.6,1.506 15.151,4.317" /></g><g
           transform="translate(159.3262,88.6768)"
           id="g68"><path
             id="path70"
             style="fill:none;stroke:#19a5ea;stroke-width:2;stroke-linecap:round;stroke-linejoin:miter;stroke-miterlimit:33;stroke-dasharray:60, 3, 4, 3;stroke-dashoffset:0;stroke-opacity:1"
             d="M 0,0 C -5.613,0.889 -19.845,10.96 -21.479,24.876" /></g><g
           transform="translate(137.8477,113.5527)"
           id="g72"><path
             id="path74"
             style="fill:none;stroke:#19a5ea;stroke-width:2;stroke-linecap:round;stroke-linejoin:miter;stroke-miterlimit:33;stroke-dasharray:75, 3, 18, 8;stroke-dashoffset:0;stroke-opacity:1"
             d="M 0,0 C 15.061,-18.097 38.401,-19.808 55.364,-7.607" /></g><g
           transform="translate(161,99.4302)"
           id="g76"><path
             id="path78"
             style="fill:none;stroke:#19a5ea;stroke-width:2;stroke-linecap:round;stroke-linejoin:miter;stroke-miterlimit:33;stroke-dasharray:8, 4, 2, 3, 55, 4;stroke-dashoffset:0;stroke-opacity:1"
             d="m 0,0 c -7.541,7.778 -11.527,14.43 -11.242,27.079 0.19,8.45 6.983,26.141 22.028,25.505 9.321,-0.393 14.501,-3.779 16.951,-6.221" /></g><g
           transform="translate(191.21,144.2012)"
           id="g80"><path
             id="path82"
             style="fill:none;stroke:#19a5ea;stroke-width:2;stroke-linecap:round;stroke-linejoin:miter;stroke-miterlimit:10;stroke-dasharray:none;stroke-opacity:1"
             d="m 0,0 c -1.894,9.633 -3.635,24.134 -11.383,31.847 -6.67,6.564 -18.498,8.407 -27.454,1.785 -9.234,-6.827 -15.152,-19.301 -6.763,-27.427 0.633,3.451 4.46,10.922 14.242,16.378" /></g><g
           transform="translate(150.5176,154.502)"
           id="g84"><path
             id="path86"
             style="fill:none;stroke:#19a5ea;stroke-width:2;stroke-linecap:round;stroke-linejoin:miter;stroke-miterlimit:10;stroke-dasharray:none;stroke-opacity:1"
             d="M 0,0 C 4.346,-3.439 8.452,-4.383 14.149,-2.572" /></g><g
           transform="translate(164.4053,181.9683)"
           id="g88"><path
             id="path90"
             style="fill:none;stroke:#19a5ea;stroke-width:2;stroke-linecap:round;stroke-linejoin:miter;stroke-miterlimit:10;stroke-dasharray:none;stroke-opacity:1"
             d="m 0,0 c 8.525,-3.41 12.355,-12.799 10.586,-18.017 -1.161,-3.565 -3.23,-8.068 -9.567,-8.945" /></g><g
           transform="translate(167.1133,172.6826)"
           id="g92"><path
             id="path94"
             style="fill:#ffffff;fill-opacity:1;fill-rule:nonzero;stroke:none"
             d="M 0,0 C -0.195,-0.303 -0.574,-0.407 -0.845,-0.233 -1.116,-0.058 -1.179,0.33 -0.983,0.632 -0.788,0.936 -0.41,1.04 -0.139,0.865 0.133,0.69 0.195,0.303 0,0" /></g><g
           transform="translate(167.1133,172.6826)"
           id="g96"><path
             id="path98"
             style="fill:none;stroke:#19a5ea;stroke-width:2;stroke-linecap:round;stroke-linejoin:miter;stroke-miterlimit:10;stroke-dasharray:none;stroke-opacity:1"
             d="M 0,0 C -0.195,-0.303 -0.574,-0.407 -0.845,-0.233 -1.116,-0.058 -1.179,0.33 -0.983,0.632 -0.788,0.936 -0.41,1.04 -0.139,0.865 0.133,0.69 0.195,0.303 0,0 Z" /></g><g
           transform="translate(165.207,151.9302)"
           id="g100"><path
             id="path102"
             style="fill:none;stroke:#19a5ea;stroke-width:2;stroke-linecap:round;stroke-linejoin:miter;stroke-miterlimit:10;stroke-dasharray:none;stroke-opacity:1"
             d="M 0,0 C -0.736,17.728 -13.751,20.801 -16.92,21.792" /></g><g
           transform="translate(159.9268,166.7646)"
           id="g104"><path
             id="path106"
             style="fill:none;stroke:#19a5ea;stroke-width:2;stroke-linecap:round;stroke-linejoin:miter;stroke-miterlimit:10;stroke-dasharray:none;stroke-opacity:1"
             d="M 0,0 C -2.707,-6.476 -6.004,-10.064 -9.409,-12.263" /></g></g></g><g
       id="g108"><g
         clip-path="url(#clipPath112)"
         id="g110"><g
           transform="translate(218.708,59.9834)"
           id="g116"><path
             id="path118"
             style="fill:#f2f2f2;fill-opacity:1;fill-rule:nonzero;stroke:none"
             d="m 0,0 c 0,-3.369 -14.458,-6.1 -32.29,-6.1 -17.834,0 -32.292,2.731 -32.292,6.1 0,3.368 14.458,6.098 32.292,6.098 C -14.458,6.098 0,3.368 0,0" /></g><g
           transform="translate(43.625,53.8569)"
           id="g120"><path
             id="path122"
             style="fill:#f2f2f2;fill-opacity:1;fill-rule:nonzero;stroke:none"
             d="M 0,0 -2.91,-1.06 29.005,-6.827 0,0 Z" /></g><g
           transform="translate(196.417,55.083)"
           id="g124"><path
             id="path126"
             style="fill:#cbeffe;fill-opacity:1;fill-rule:nonzero;stroke:none"
             d="M 0,0 C 1.653,-1.422 5.013,-3.494 5.013,-3.494 -1.096,-4.889 -9.485,-5.75 -18.743,-5.75 c -18.681,0 -33.825,3.506 -33.825,7.831 0,1.18 1.129,2.3 3.15,3.304 0,0 10.918,-0.06 19.168,1.032 0.954,0.126 14.766,3.855 14.766,2.913 C -15.484,8.023 -1.897,1.632 0,0" /></g><g
           transform="translate(64.8232,168.25)"
           id="g128"><path
             id="path130"
             style="fill:#cbeffe;fill-opacity:1;fill-rule:nonzero;stroke:none"
             d="m 0,0 c 0,0 -1.261,-17.25 -0.448,-17.25 1.187,0 19.062,-11.437 19.062,-11.437 l -2.513,5.937 C -0.954,-14.791 0,0 0,0" /></g><g
           transform="translate(98.793,158.7686)"
           id="g132"><path
             id="path134"
             style="fill:#cbeffe;fill-opacity:1;fill-rule:nonzero;stroke:none"
             d="M 0,0 C 0,0 10.082,-28.016 25.51,-53.946 L 34.679,-56 C 28.082,-51.755 0,0 0,0" /></g><g
           transform="translate(100.8389,48.6504)"
           id="g136"><path
             id="path138"
             style="fill:#f2f2f2;fill-opacity:1;fill-rule:nonzero;stroke:none"
             d="m 0,0 -3.897,-6.253 -13.427,4.311 -16.254,4.43 c 0,0 24.309,-5.293 28.362,-4.677 C -3.729,-1.963 0,0 0,0" /></g><g
           transform="translate(135.3896,54.917)"
           id="g140"><path
             id="path142"
             style="fill:#f2f2f2;fill-opacity:1;fill-rule:nonzero;stroke:none"
             d="M 0,0 -10.556,-1.75 10.452,-13.375 0,0 Z" /></g><g
           transform="translate(95.2852,47.8501)"
           id="g144"><path
             id="path146"
             style="fill:#cbeffe;fill-opacity:1;fill-rule:nonzero;stroke:none"
             d="M 0,0 -4.953,-2.001 4.245,-1 0,0 Z" /></g><g
           transform="translate(96.6265,167.7842)"
           id="g148"><path
             id="path150"
             style="fill:none;stroke:#19a5ea;stroke-width:1;stroke-linecap:round;stroke-linejoin:miter;stroke-miterlimit:10;stroke-dasharray:none;stroke-opacity:1"
             d="M 0,0 C 11.124,-12.784 19.124,-11.159 31.499,-10.284" /></g><g
           transform="translate(128.125,157.5)"
           id="g152"><path
             id="path154"
             style="fill:none;stroke:#19a5ea;stroke-width:1;stroke-linecap:round;stroke-linejoin:miter;stroke-miterlimit:10;stroke-dasharray:none;stroke-opacity:1"
             d="M 0,0 C 1.5,-13.5 8,-30.625 13.875,-41.625" /></g><g
           transform="translate(142.6406,101.7275)"
           id="g156"><path
             id="path158"
             style="fill:none;stroke:#19a5ea;stroke-width:1;stroke-linecap:round;stroke-linejoin:miter;stroke-miterlimit:10;stroke-dasharray:none;stroke-opacity:1"
             d="M 0,0 C -9.141,0.356 -10.223,0.849 -18.338,3.095" /></g><g
           transform="translate(96.6265,167.7842)"
           id="g160"><path
             id="path162"
             style="fill:none;stroke:#19a5ea;stroke-width:1;stroke-linecap:round;stroke-linejoin:miter;stroke-miterlimit:10;stroke-dasharray:none;stroke-opacity:1"
             d="M 0,0 C 3.853,-21.281 17.282,-42.885 27.676,-62.961" /></g><g
           transform="translate(63.8018,71.686)"
           id="g164"><path
             id="path166"
             style="fill:none;stroke:#19a5ea;stroke-width:1;stroke-linecap:round;stroke-linejoin:miter;stroke-miterlimit:10;stroke-dasharray:none;stroke-opacity:1"
             d="m 0,0 c -9.009,-5.255 -21.284,-10.988 -30.74,-16.659 -1.685,-1.01 -3.281,-2.019 -4.753,-3.023" /></g><g
           transform="translate(27.8662,51.562)"
           id="g168"><path
             id="path170"
             style="fill:none;stroke:#19a5ea;stroke-width:1;stroke-linecap:round;stroke-linejoin:miter;stroke-miterlimit:10;stroke-dasharray:none;stroke-opacity:1"
             d="M 0,0 C 2.036,-0.548 4.071,-1.041 6.106,-1.502 15.57,-3.649 25.035,-5.127 34.498,-8.403" /></g><g
           transform="translate(63.249,43.1587)"
           id="g172"><path
             id="path174"
             style="fill:none;stroke:#19a5ea;stroke-width:1;stroke-linecap:round;stroke-linejoin:miter;stroke-miterlimit:10;stroke-dasharray:none;stroke-opacity:1"
             d="M 0,0 6.499,4.731" /></g><g
           transform="translate(68.3032,70.1162)"
           id="g176"><path
             id="path178"
             style="fill:none;stroke:#19a5ea;stroke-width:1;stroke-linecap:round;stroke-linejoin:miter;stroke-miterlimit:10;stroke-dasharray:none;stroke-opacity:1"
             d="M 0,0 -4.501,1.57" /></g><g
           transform="translate(77,171)"
           id="g180"><path
             id="path182"
             style="fill:none;stroke:#19a5ea;stroke-width:1;stroke-linecap:round;stroke-linejoin:miter;stroke-miterlimit:10;stroke-dasharray:none;stroke-opacity:1"
             d="M 0,0 C 0,-14 1.282,-23.583 9.282,-35.083" /></g><g
           transform="translate(86.2817,135.9175)"
           id="g184"><path
             id="path186"
             style="fill:none;stroke:#19a5ea;stroke-width:1;stroke-linecap:round;stroke-linejoin:miter;stroke-miterlimit:10;stroke-dasharray:none;stroke-opacity:1"
             d="M 0,0 C -6.5,7.5 -13.282,10.583 -22.282,15.083" /></g><g
           transform="translate(64,151)"
           id="g188"><path
             id="path190"
             style="fill:none;stroke:#19a5ea;stroke-width:1;stroke-linecap:round;stroke-linejoin:miter;stroke-miterlimit:10;stroke-dasharray:none;stroke-opacity:1"
             d="M 0,0 C -1,11 3.875,27.769 -2.625,35.537" /></g><g
           transform="translate(61.375,186.5371)"
           id="g192"><path
             id="path194"
             style="fill:none;stroke:#19a5ea;stroke-width:1;stroke-linecap:round;stroke-linejoin:miter;stroke-miterlimit:10;stroke-dasharray:none;stroke-opacity:1"
             d="M 0,0 C 7,-0.537 14.375,-11.787 15.625,-15.537" /></g><g
           transform="translate(46.4873,140.7085)"
           id="g196"><path
             id="path198"
             style="fill:none;stroke:#19a5ea;stroke-width:1;stroke-linecap:round;stroke-linejoin:miter;stroke-miterlimit:10;stroke-dasharray:none;stroke-opacity:1"
             d="M 0,0 C -1.333,-9.667 13.096,-21.012 21.43,-22.345" /></g><g
           transform="translate(72.1543,109.7085)"
           id="g200"><path
             id="path202"
             style="fill:none;stroke:#19a5ea;stroke-width:1;stroke-linecap:round;stroke-linejoin:miter;stroke-miterlimit:10;stroke-dasharray:none;stroke-opacity:1"
             d="M 0,0 C -1.334,3.666 -2.237,5.322 -4.237,8.655" /></g><g
           transform="translate(72.1543,109.7085)"
           id="g204"><path
             id="path206"
             style="fill:none;stroke:#19a5ea;stroke-width:1;stroke-linecap:round;stroke-linejoin:miter;stroke-miterlimit:10;stroke-dasharray:none;stroke-opacity:1"
             d="M 0,0 C -19.508,1.127 -37.334,11.333 -46.334,24.333" /></g><g
           transform="translate(25.8203,134.0415)"
           id="g208"><path
             id="path210"
             style="fill:none;stroke:#19a5ea;stroke-width:1;stroke-linecap:round;stroke-linejoin:miter;stroke-miterlimit:10;stroke-dasharray:none;stroke-opacity:1"
             d="M 0,0 C 6,3 14,7.667 20.667,8" /></g><g
           transform="translate(76.6509,74.7075)"
           id="g212"><path
             id="path214"
             style="fill:none;stroke:#19a5ea;stroke-width:1;stroke-linecap:round;stroke-linejoin:miter;stroke-miterlimit:10;stroke-dasharray:none;stroke-opacity:1"
             d="m 0,0 c -9.009,-5.255 -21.284,-10.988 -30.74,-16.659 -1.686,-1.01 -3.282,-2.019 -4.754,-3.023" /></g><g
           transform="translate(40.7148,54.5835)"
           id="g216"><path
             id="path218"
             style="fill:none;stroke:#19a5ea;stroke-width:1;stroke-linecap:round;stroke-linejoin:miter;stroke-miterlimit:10;stroke-dasharray:none;stroke-opacity:1"
             d="M 0,0 C 2.036,-0.548 4.071,-1.041 6.106,-1.502 15.57,-3.649 25.035,-5.127 34.499,-8.403" /></g><g
           transform="translate(76.0977,46.1025)"
           id="g220"><path
             id="path222"
             style="fill:none;stroke:#19a5ea;stroke-width:1;stroke-linecap:round;stroke-linejoin:miter;stroke-miterlimit:10;stroke-dasharray:none;stroke-opacity:1"
             d="M 0,0 1.657,1.271" /></g><g
           transform="translate(91.9004,70.6826)"
           id="g224"><path
             id="path226"
             style="fill:none;stroke:#19a5ea;stroke-width:1;stroke-linecap:round;stroke-linejoin:miter;stroke-miterlimit:10;stroke-dasharray:none;stroke-opacity:1"
             d="M 0,0 C -12.827,1.327 -2.865,0.487 -15.25,4.025" /></g><g
           transform="translate(67.8086,57.8145)"
           id="g228"><path
             id="path230"
             style="fill:none;stroke:#19a5ea;stroke-width:1;stroke-linecap:round;stroke-linejoin:miter;stroke-miterlimit:10;stroke-dasharray:none;stroke-opacity:1"
             d="M 0,0 C -0.716,-0.413 -1.419,-0.826 -2.107,-1.239 -3.793,-2.25 -5.389,-3.258 -6.861,-4.262" /></g><g
           transform="translate(96.4414,73.2344)"
           id="g232"><path
             id="path234"
             style="fill:none;stroke:#19a5ea;stroke-width:1;stroke-linecap:round;stroke-linejoin:miter;stroke-miterlimit:10;stroke-dasharray:none;stroke-opacity:1"
             d="M 0,0 C -3.498,-2.041 -7.488,-4.153 -11.614,-6.306" /></g><g
           transform="translate(60.5054,53.1104)"
           id="g236"><path
             id="path238"
             style="fill:none;stroke:#19a5ea;stroke-width:1;stroke-linecap:round;stroke-linejoin:miter;stroke-miterlimit:10;stroke-dasharray:none;stroke-opacity:1"
             d="m 0,0 c 2.036,-0.548 4.071,-1.041 6.106,-1.502 7.577,-1.719 15.155,-3.009 22.732,-5.137 1.887,-0.53 4.327,0.237 5.661,1.418" /></g><g
           transform="translate(112.3164,56.6465)"
           id="g240"><path
             id="path242"
             style="fill:none;stroke:#19a5ea;stroke-width:1;stroke-linecap:round;stroke-linejoin:miter;stroke-miterlimit:10;stroke-dasharray:none;stroke-opacity:1"
             d="M 0,0 C 4.909,3.401 10.043,6.59 15.859,9.29" /></g><g
           transform="translate(95.8887,47.5444)"
           id="g244"><path
             id="path246"
             style="fill:none;stroke:#19a5ea;stroke-width:1;stroke-linecap:round;stroke-linejoin:miter;stroke-miterlimit:10;stroke-dasharray:none;stroke-opacity:1"
             d="M 0,0 C 1.467,-0.836 3.066,-0.636 4.571,0.471 5.716,1.312 6.853,2.155 7.987,2.995" /></g><g
           transform="translate(128.1191,65.9365)"
           id="g248"><path
             id="path250"
             style="fill:none;stroke:#19a5ea;stroke-width:1;stroke-linecap:round;stroke-linejoin:miter;stroke-miterlimit:10;stroke-dasharray:none;stroke-opacity:1"
             d="M 0,0 C -12.826,1.327 -19.792,3.759 -32.176,7.298" /></g><g
           transform="translate(180.5322,64.9937)"
           id="g252"><path
             id="path254"
             style="fill:none;stroke:#19a5ea;stroke-width:1;stroke-linecap:round;stroke-linejoin:miter;stroke-miterlimit:10;stroke-dasharray:none;stroke-opacity:1"
             d="M 0,0 C -17,-5.667 -33.666,-5.333 -51,-3" /></g><g
           transform="translate(128.8662,62.3271)"
           id="g256"><path
             id="path258"
             style="fill:none;stroke:#19a5ea;stroke-width:1;stroke-linecap:round;stroke-linejoin:miter;stroke-miterlimit:10;stroke-dasharray:none;stroke-opacity:1"
             d="M 0,0 C 5.666,-7.667 13.333,-12.667 17.666,-21.334" /></g><g
           transform="translate(147.1992,40.3271)"
           id="g260"><path
             id="path262"
             style="fill:none;stroke:#19a5ea;stroke-width:1;stroke-linecap:round;stroke-linejoin:miter;stroke-miterlimit:10;stroke-dasharray:none;stroke-opacity:1"
             d="M 0,0 C 18.667,4 37.333,6 56.333,8.333" /></g><g
           transform="translate(204.1992,48.6602)"
           id="g264"><path
             id="path266"
             style="fill:none;stroke:#19a5ea;stroke-width:1;stroke-linecap:round;stroke-linejoin:miter;stroke-miterlimit:10;stroke-dasharray:none;stroke-opacity:1"
             d="M 0,0 C -5.333,7 -15.333,9.333 -21.667,15" /></g><g
           transform="translate(30.7061,50.3818)"
           id="g268"><path
             id="path270"
             style="fill:#f2f2f2;fill-opacity:1;fill-rule:nonzero;stroke:none"
             d="M 0,0 -2.84,-2.31 30.242,-7.223 0,0 Z" /></g><g
           transform="translate(53.3218,125.4053)"
           id="g272"><path
             id="path274"
             style="fill:#f2f2f2;fill-opacity:1;fill-rule:nonzero;stroke:none"
             d="m 0,0 c 0,0 -2.583,-4.917 -0.162,-8.242 1.113,-1.529 16.321,-5.841 16.321,-5.841 0,0 -1.26,1.943 -1.576,2.739 -0.307,0.774 -0.916,3.541 -0.916,3.541 C 7.48,-7.042 0,0 0,0" /></g><g
           transform="translate(132.291,115.875)"
           id="g276"><path
             id="path278"
             style="fill:#f2f2f2;fill-opacity:1;fill-rule:nonzero;stroke:none"
             d="m 0,0 -2.958,2.5 c 0,0 2.75,-13.457 5.875,-15.1 l 4.25,-0.507 c 0,0 -3.62,4.667 -5.6,9.042 C 1.14,-3.121 0,0 0,0" /></g><g
           transform="translate(46,108)"
           id="g280"><path
             id="path282"
             style="fill:none;stroke:#19a5ea;stroke-width:1;stroke-linecap:round;stroke-linejoin:miter;stroke-miterlimit:10;stroke-dasharray:none;stroke-opacity:1"
             d="M 0,0 C 3.25,-2.25 8,-3.75 12,-4" /></g><g
           transform="translate(46,103.6318)"
           id="g284"><path
             id="path286"
             style="fill:none;stroke:#19a5ea;stroke-width:1;stroke-linecap:round;stroke-linejoin:miter;stroke-miterlimit:10;stroke-dasharray:none;stroke-opacity:1"
             d="M 0,0 C 3.458,-1.538 8.408,-2.657 8.326,-2.657" /></g><g
           transform="translate(35.4434,144.0415)"
           id="g288"><path
             id="path290"
             style="fill:none;stroke:#19a5ea;stroke-width:1;stroke-linecap:round;stroke-linejoin:miter;stroke-miterlimit:10;stroke-dasharray:none;stroke-opacity:1"
             d="M 0,0 C -2.5,-1.5 -5.25,-3 -8,-4" /></g><g
           transform="translate(34.1855,146.958)"
           id="g292"><path
             id="path294"
             style="fill:none;stroke:#19a5ea;stroke-width:1;stroke-linecap:round;stroke-linejoin:miter;stroke-miterlimit:10;stroke-dasharray:none;stroke-opacity:1"
             d="M 0,0 C -2.402,-1.682 -2.985,-2.167 -5.485,-2.917" /></g><g
           transform="translate(77,179.0342)"
           id="g296"><path
             id="path298"
             style="fill:none;stroke:#19a5ea;stroke-width:1;stroke-linecap:round;stroke-linejoin:miter;stroke-miterlimit:10;stroke-dasharray:none;stroke-opacity:1"
             d="M 0,0 C 0.818,-1.25 1.5,-1.75 2.25,-2.5" /></g><g
           transform="translate(95.0601,60.0356)"
           id="g300"><path
             id="path302"
             style="fill:none;stroke:#19a5ea;stroke-width:1;stroke-linecap:round;stroke-linejoin:miter;stroke-miterlimit:33;stroke-dasharray:8, 4, 2, 3, 55, 4;stroke-dashoffset:0;stroke-opacity:1"
             d="m 0,0 c -0.185,-2.656 -5.989,-4.415 -12.964,-3.93 -6.975,0.485 -12.48,3.031 -12.295,5.687 0.184,2.655 5.988,4.415 12.964,3.93 C -5.32,5.202 0.185,2.656 0,0 Z" /></g><g
           transform="translate(95.0601,60.0356)"
           id="g304"><path
             id="path306"
             style="fill:none;stroke:#19a5ea;stroke-width:1;stroke-linecap:round;stroke-linejoin:miter;stroke-miterlimit:33;stroke-dasharray:8, 4, 2, 3, 55, 4;stroke-dashoffset:0;stroke-opacity:1"
             d="m 0,0 c 0.082,-0.249 -0.185,-2.257 -0.203,-2.511 -0.184,-2.656 -5.989,-4.416 -12.964,-3.93 -6.975,0.485 -12.48,3.03 -12.295,5.687 0.006,0.089 0.019,0.176 0.037,0.263 0.038,0.177 0.079,2.081 0.166,2.248" /></g><g
           transform="translate(94.7734,56.5625)"
           id="g308"><path
             id="path310"
             style="fill:#cbeffe;fill-opacity:1;fill-rule:nonzero;stroke:#cbeffe;stroke-width:2;stroke-linecap:round;stroke-linejoin:miter;stroke-miterlimit:33;stroke-dasharray:none;stroke-opacity:1"
             d="M 0,0 1.245,-0.272" /></g><g
           transform="translate(92.562,60.293)"
           id="g312"><path
             id="path314"
             style="fill:#cbeffe;fill-opacity:1;fill-rule:nonzero;stroke:none"
             d="m 0,0 c -0.166,-2.199 -5.09,-3.619 -10.998,-3.173 -5.909,0.445 -10.563,2.59 -10.398,4.788 0.167,2.199 5.53,3.476 11.438,3.029 0,0 -9.346,-3.068 -3.303,-5.267 C -3.648,-4.123 0,0 0,0" /></g><g
           transform="translate(114.7764,51.2744)"
           id="g316"><path
             id="path318"
             style="fill:none;stroke:#19a5ea;stroke-width:1;stroke-linecap:round;stroke-linejoin:round;stroke-miterlimit:33;stroke-dasharray:none;stroke-opacity:1"
             d="m 0,0 -17.225,2.905 c 0,0 -0.92,0.336 -0.781,1.964 0.111,1.327 1.384,1.464 1.384,1.464 L 0.56,3.443 0,0 Z" /></g><g
           transform="translate(117.2363,52.7739)"
           id="g320"><path
             id="path322"
             style="fill:#cbeffe;fill-opacity:1;fill-rule:nonzero;stroke:none"
             d="m 0,0 c -0.112,-1.329 -0.878,-2.348 -1.709,-2.278 -0.833,0.07 -1.417,1.205 -1.305,2.533 0.113,1.327 0.878,2.347 1.711,2.277 C -0.471,2.461 0.112,1.327 0,0" /></g><g
           transform="translate(94.0205,54.2183)"
           id="g324"><path
             id="path326"
             style="fill:#f2f2f2;fill-opacity:1;fill-rule:nonzero;stroke:none"
             d="m 0,0 c 0.525,-0.216 2.117,-0.217 1.646,-0.523 -1.756,-1.143 -8.732,-2.409 -13.753,-2.093 -6.367,0.402 -11.447,2.018 -11.347,3.613 0,0 5.043,-2.217 11.41,-2.617 2.855,-0.179 5.491,0.037 7.531,0.329 C -2.003,-0.93 0,0 0,0" /></g><g
           transform="translate(113.9443,49.1128)"
           id="g328"><path
             id="path330"
             style="fill:#f2f2f2;fill-opacity:1;fill-rule:nonzero;stroke:none"
             d="m 0,0 -20.538,3.615 1.367,1.31 L 1.785,1.379 0,0 Z" /></g></g></g><g
       id="g332"><g
         clip-path="url(#clipPath336)"
         id="g334"><g
           transform="translate(78.5029,97.4097)"
           id="g340"><path
             id="path342"
             style="fill:#cbeffe;fill-opacity:1;fill-rule:nonzero;stroke:none"
             d="m 0,0 c -3.344,0.156 -5.876,-17.088 9.713,-9.219 0,0 -5.56,0.354 -6.966,1.471 C 0.747,-6.16 0,0 0,0" /></g><g
           transform="translate(89.438,92.3032)"
           id="g344"><path
             id="path346"
             style="fill:#cbeffe;fill-opacity:1;fill-rule:nonzero;stroke:none"
             d="M 0,0 -1.938,-6.17 64.688,-3.085 60.305,0 0,0 Z" /></g><g
           transform="translate(195,89.3179)"
           id="g348"><path
             id="path350"
             style="fill:#cbeffe;fill-opacity:1;fill-rule:nonzero;stroke:none"
             d="m 0,0 20.21,0 2.5,1.782 1,3.125 L 1.875,2.985 0,0 Z" /></g><g
           transform="translate(216.5,98)"
           id="g352"><path
             id="path354"
             style="fill:none;stroke:#19a5ea;stroke-width:2;stroke-linecap:round;stroke-linejoin:miter;stroke-miterlimit:10;stroke-dasharray:none;stroke-opacity:1"
             d="M 0,0 -15.75,0" /></g><g
           transform="translate(214.2422,88.7021)"
           id="g356"><path
             id="path358"
             style="fill:none;stroke:#19a5ea;stroke-width:2;stroke-linecap:round;stroke-linejoin:miter;stroke-miterlimit:10;stroke-dasharray:none;stroke-opacity:1"
             d="M 0,0 C 6.508,0.959 5.633,9.048 2.258,9.298" /></g><g
           transform="translate(194.167,88.7021)"
           id="g360"><path
             id="path362"
             style="fill:none;stroke:#19a5ea;stroke-width:2;stroke-linecap:round;stroke-linejoin:miter;stroke-miterlimit:10;stroke-dasharray:none;stroke-opacity:1"
             d="M 0,0 C 6.218,0 15.511,-0.305 20.075,0" /></g><g
           transform="translate(84.5,85.6553)"
           id="g364"><path
             id="path366"
             style="fill:none;stroke:#19a5ea;stroke-width:2;stroke-linecap:round;stroke-linejoin:miter;stroke-miterlimit:10;stroke-dasharray:none;stroke-opacity:1"
             d="M 0,0 C 19.333,1.333 49.667,2.845 69,2.845" /></g><g
           transform="translate(83.8335,99)"
           id="g368"><path
             id="path370"
             style="fill:none;stroke:#19a5ea;stroke-width:2;stroke-linecap:round;stroke-linejoin:miter;stroke-miterlimit:10;stroke-dasharray:none;stroke-opacity:1"
             d="M 0,0 C -8,1.667 -11,-11.667 -3,-13.333 7,-15.333 8.667,-2 0,0" /></g><g
           transform="translate(147,96.5)"
           id="g372"><path
             id="path374"
             style="fill:none;stroke:#19a5ea;stroke-width:2;stroke-linecap:round;stroke-linejoin:miter;stroke-miterlimit:10;stroke-dasharray:none;stroke-opacity:1"
             d="M 0,0 C -22.334,0.333 -40.167,2.5 -62.5,2.5" /></g><g
           transform="translate(95.5835,85.6553)"
           id="g376"><path
             id="path378"
             style="fill:none;stroke:#19a5ea;stroke-width:0.75;stroke-linecap:round;stroke-linejoin:miter;stroke-miterlimit:10;stroke-dasharray:none;stroke-opacity:1"
             d="m 0,0 c 2.5,1.167 4,4.148 4,6.648 0.167,3.333 -1.583,6.53 -4.75,7.53" /></g><g
           transform="translate(94.8335,99.8335)"
           id="g380"><path
             id="path382"
             style="fill:none;stroke:#19a5ea;stroke-width:0.75;stroke-linecap:round;stroke-linejoin:miter;stroke-miterlimit:10;stroke-dasharray:none;stroke-opacity:1"
             d="M 0,0 C 0,9.333 0.458,103.667 0.292,108.167" /></g><g
           transform="translate(95.1196,99.4546)"
           id="g384"><path
             id="path386"
             style="fill:none;stroke:#19a5ea;stroke-width:0.75;stroke-linecap:round;stroke-linejoin:miter;stroke-miterlimit:10;stroke-dasharray:none;stroke-opacity:1"
             d="m 0,0 c 0.25,4.083 -7.768,10.652 -8.602,5.902 -0.583,-3.833 5.084,-6 7.917,-6.833" /></g><g
           transform="translate(95.1196,99.4546)"
           id="g388"><path
             id="path390"
             style="fill:none;stroke:#19a5ea;stroke-width:0.75;stroke-linecap:round;stroke-linejoin:miter;stroke-miterlimit:10;stroke-dasharray:none;stroke-opacity:1"
             d="M 0,0 C 0.518,1.22 1.664,2.256 2.81,2.884 3.513,3.292 4.252,3.624 5.066,3.698 5.806,3.735 6.767,3.254 6.989,2.515 7.359,1.257 5.88,-0.074 4.844,-0.37 3.587,-0.74 1.849,-0.999 0.518,-0.961" /></g><g
           transform="translate(207.3975,88.5688)"
           id="g392"><path
             id="path394"
             style="fill:none;stroke:#19a5ea;stroke-width:0.75;stroke-linecap:round;stroke-linejoin:miter;stroke-miterlimit:10;stroke-dasharray:none;stroke-opacity:1"
             d="M 0,0 C 2.5,1.167 3.507,3.103 3.937,4.782 4.764,8.016 3.679,10.77 0.513,11.77" /></g><g
           transform="translate(209.9268,99.6738)"
           id="g396"><path
             id="path398"
             style="fill:none;stroke:#19a5ea;stroke-width:0.75;stroke-linecap:round;stroke-linejoin:miter;stroke-miterlimit:10;stroke-dasharray:none;stroke-opacity:1"
             d="M 0,0 C 0,9.333 -14.761,98.826 -14.927,103.326" /></g><g
           transform="translate(210.0889,99.1924)"
           id="g400"><path
             id="path402"
             style="fill:none;stroke:#19a5ea;stroke-width:0.75;stroke-linecap:round;stroke-linejoin:miter;stroke-miterlimit:10;stroke-dasharray:none;stroke-opacity:1"
             d="m 0,0 c 0.108,1.784 -3.394,4.654 -3.758,2.579 -0.255,-1.675 2.221,-2.621 3.459,-2.986" /></g><g
           transform="translate(209.751,98)"
           id="g404"><path
             id="path406"
             style="fill:none;stroke:#19a5ea;stroke-width:0.75;stroke-linecap:round;stroke-linejoin:miter;stroke-miterlimit:10;stroke-dasharray:none;stroke-opacity:1"
             d="M 0,0 C 0.518,1.22 0.437,3.019 1.583,3.647 2.286,4.055 2.853,5.2 3.666,5.273 4.406,5.311 5.212,5.214 5.434,4.475 5.804,3.217 4.325,1.886 3.289,1.59 2.032,1.22 0.294,0.961 -1.038,0.999" /></g></g></g></g></svg>