<svg xmlns="http://www.w3.org/2000/svg" height="299.375" width="310" xml:space="preserve"><defs><clipPath id="a" clipPathUnits="userSpaceOnUse"><path d="M0 239.5h248V0H0v239.5Z"/></clipPath><clipPath id="b" clipPathUnits="userSpaceOnUse"><path d="M0 239.5h248V0H0v239.5Z"/></clipPath><clipPath id="c" clipPathUnits="userSpaceOnUse"><path d="M0 239.5h248V0H0v239.5Z"/></clipPath><clipPath id="d" clipPathUnits="userSpaceOnUse"><path d="M0 239.5h248V0H0v239.5Z"/></clipPath></defs><g clip-path="url(#a)" transform="matrix(1.25 0 0 -1.25 0 299.375)"><path style="fill:#f9f9f9;fill-opacity:1;fill-rule:nonzero;stroke:none" d="M0 0c0-57.935-46.965-104.899-104.899-104.899-57.935 0-104.9 46.964-104.9 104.899s46.965 104.9 104.9 104.9C-46.965 104.9 0 57.935 0 0" transform="translate(230.242 119.34)"/></g><g clip-path="url(#b)" transform="matrix(1.25 0 0 -1.25 0 299.375)"><path style="fill:#cbeffe;fill-opacity:1;fill-rule:nonzero;stroke:none" d="M0 0s-33.359-16.675-13.521-52.149c0 0 29.739 1.369 32.627 17.276C22.523-16.052 4.861-.848 0 0" transform="translate(183.155 150.31)"/><path style="fill:#cbeffe;fill-opacity:1;fill-rule:nonzero;stroke:none" d="M0 0s-11.198-12.026-1.847-22.889c0 0 3.679 7.434 5.597 9.701 2.02 2.386 8.645 6.678 8.645 6.678C7.815-.506 0 0 0 0" transform="translate(147.457 173.295)"/><path style="fill:#cbeffe;fill-opacity:1;fill-rule:nonzero;stroke:none" d="M0 0s-6.45-10.018-9.334-12.283c0 0 4.054-2.374 5.905-3.102 2.772-1.088 8.244.53 8.244.53S6.759-8.561 0 0" transform="translate(159.852 166.785)"/><path style="fill:#cbeffe;fill-opacity:1;fill-rule:nonzero;stroke:none" d="M0 0s-12.133-18.131-34.434-16.33c-8.268.667-21.142 5.021-30.107 15.403 0 0 2.166-10.622 7.276-15.731 4.824-4.822 14.202-9.145 14.202-9.145s-5.23-5.413-14.138-4.429c-.506.056 2.671-2.614 6.954-3.985 4.283-1.37 9.672-1.441 9.672-1.441s-3.863-5.998-6.586-6.318C-51.957-42.541-4.771-47.958 0 0" transform="translate(202.389 114.48)"/><path style="fill:#cbeffe;fill-opacity:1;fill-rule:nonzero;stroke:none" d="M0 0s12.242-1.526 12.56-6.044c.318-4.519 4.021-18.987 4.021-18.987s-3.666 3.284-10.78 6.369c-2.823 1.225-15.223 1.36-15.223 1.36l-.281 2.456s4.734.891 7.508 4.326C.579-7.085 1.663-5.233 0 0" transform="translate(174.629 169.232)"/><path style="fill:none;stroke:#19a5ea;stroke-width:2;stroke-linecap:round;stroke-linejoin:miter;stroke-miterlimit:33;stroke-dasharray:23,3,2,4,444;stroke-dashoffset:0;stroke-opacity:1" d="M0 0c15.725-13.303 14.597-35.505 1.669-54.877-8.053-12.067-23.747-17.601-37.898-16.661" transform="translate(191.457 144.042)"/><path style="fill:none;stroke:#19a5ea;stroke-width:2;stroke-linecap:round;stroke-linejoin:miter;stroke-miterlimit:10;stroke-dasharray:none;stroke-opacity:1" d="M0 0c-2.193-2.675-3.464-4.158-6.586-6.318M0 0c-6.496-.662-12.824 2.438-17.639 5.538" transform="translate(161.814 78.822)"/><path style="fill:none;stroke:#19a5ea;stroke-width:2;stroke-linecap:round;stroke-linejoin:miter;stroke-miterlimit:33;stroke-dasharray:12,4,4,3;stroke-dashoffset:0;stroke-opacity:1" d="M0 0c4.439-.744 10.6 1.506 15.151 4.317" transform="translate(144.175 84.36)"/><path style="fill:none;stroke:#19a5ea;stroke-width:2;stroke-linecap:round;stroke-linejoin:miter;stroke-miterlimit:33;stroke-dasharray:60,3,4,3;stroke-dashoffset:0;stroke-opacity:1" d="M0 0c-5.613.889-19.845 10.96-21.479 24.876" transform="translate(159.326 88.677)"/><path style="fill:none;stroke:#19a5ea;stroke-width:2;stroke-linecap:round;stroke-linejoin:miter;stroke-miterlimit:33;stroke-dasharray:75,3,18,8;stroke-dashoffset:0;stroke-opacity:1" d="M0 0c15.061-18.097 38.401-19.808 55.364-7.607" transform="translate(137.848 113.553)"/><path style="fill:none;stroke:#19a5ea;stroke-width:2;stroke-linecap:round;stroke-linejoin:miter;stroke-miterlimit:33;stroke-dasharray:8,4,2,3,55,4;stroke-dashoffset:0;stroke-opacity:1" d="M0 0c-7.541 7.778-11.527 14.43-11.242 27.079.19 8.45 6.983 26.141 22.028 25.505 9.321-.393 14.501-3.779 16.951-6.221" transform="translate(161 99.43)"/><path style="fill:none;stroke:#19a5ea;stroke-width:2;stroke-linecap:round;stroke-linejoin:miter;stroke-miterlimit:10;stroke-dasharray:none;stroke-opacity:1" d="M0 0c-1.894 9.633-3.635 24.134-11.383 31.847-6.67 6.564-18.498 8.407-27.454 1.785-9.234-6.827-15.152-19.301-6.763-27.427.633 3.451 4.46 10.922 14.242 16.378" transform="translate(191.21 144.201)"/><path style="fill:none;stroke:#19a5ea;stroke-width:2;stroke-linecap:round;stroke-linejoin:miter;stroke-miterlimit:10;stroke-dasharray:none;stroke-opacity:1" d="M0 0c4.346-3.439 8.452-4.383 14.149-2.572" transform="translate(150.518 154.502)"/><path style="fill:none;stroke:#19a5ea;stroke-width:2;stroke-linecap:round;stroke-linejoin:miter;stroke-miterlimit:10;stroke-dasharray:none;stroke-opacity:1" d="M0 0c8.525-3.41 12.355-12.799 10.586-18.017-1.161-3.565-3.23-8.068-9.567-8.945" transform="translate(164.405 181.968)"/><path style="fill:#fff;fill-opacity:1;fill-rule:nonzero;stroke:none" d="M0 0c-.195-.303-.574-.407-.845-.233-.271.175-.334.563-.138.865.195.304.573.408.844.233C.133.69.195.303 0 0" transform="translate(167.113 172.683)"/><path style="fill:none;stroke:#19a5ea;stroke-width:2;stroke-linecap:round;stroke-linejoin:miter;stroke-miterlimit:10;stroke-dasharray:none;stroke-opacity:1" d="M0 0c-.195-.303-.574-.407-.845-.233-.271.175-.334.563-.138.865.195.304.573.408.844.233C.133.69.195.303 0 0Z" transform="translate(167.113 172.683)"/><path style="fill:none;stroke:#19a5ea;stroke-width:2;stroke-linecap:round;stroke-linejoin:miter;stroke-miterlimit:10;stroke-dasharray:none;stroke-opacity:1" d="M0 0c-.736 17.728-13.751 20.801-16.92 21.792" transform="translate(165.207 151.93)"/><path style="fill:none;stroke:#19a5ea;stroke-width:2;stroke-linecap:round;stroke-linejoin:miter;stroke-miterlimit:10;stroke-dasharray:none;stroke-opacity:1" d="M0 0c-2.707-6.476-6.004-10.064-9.409-12.263" transform="translate(159.927 166.765)"/></g><g clip-path="url(#c)" transform="matrix(1.25 0 0 -1.25 0 299.375)"><path style="fill:#f2f2f2;fill-opacity:1;fill-rule:nonzero;stroke:none" d="M0 0c0-3.369-14.458-6.1-32.29-6.1-17.834 0-32.292 2.731-32.292 6.1 0 3.368 14.458 6.098 32.292 6.098C-14.458 6.098 0 3.368 0 0" transform="translate(218.708 59.983)"/><path style="fill:#f2f2f2;fill-opacity:1;fill-rule:nonzero;stroke:none" d="m0 0-2.91-1.06 31.915-5.767L0 0Z" transform="translate(43.625 53.857)"/><path style="fill:#cbeffe;fill-opacity:1;fill-rule:nonzero;stroke:none" d="M0 0c1.653-1.422 5.013-3.494 5.013-3.494C-1.096-4.889-9.485-5.75-18.743-5.75c-18.681 0-33.825 3.506-33.825 7.831 0 1.18 1.129 2.3 3.15 3.304 0 0 10.918-.06 19.168 1.032.954.126 14.766 3.855 14.766 2.913C-15.484 8.023-1.897 1.632 0 0" transform="translate(196.417 55.083)"/><path style="fill:#cbeffe;fill-opacity:1;fill-rule:nonzero;stroke:none" d="M0 0s-1.261-17.25-.448-17.25c1.187 0 19.062-11.437 19.062-11.437l-2.513 5.937C-.954-14.791 0 0 0 0" transform="translate(64.823 168.25)"/><path style="fill:#cbeffe;fill-opacity:1;fill-rule:nonzero;stroke:none" d="M0 0s10.082-28.016 25.51-53.946L34.679-56C28.082-51.755 0 0 0 0" transform="translate(98.793 158.769)"/><path style="fill:#f2f2f2;fill-opacity:1;fill-rule:nonzero;stroke:none" d="m0 0-3.897-6.253-13.427 4.311-16.254 4.43S-9.269-2.805-5.216-2.189C-3.729-1.963 0 0 0 0" transform="translate(100.839 48.65)"/><path style="fill:#f2f2f2;fill-opacity:1;fill-rule:nonzero;stroke:none" d="m0 0-10.556-1.75 21.008-11.625L0 0Z" transform="translate(135.39 54.917)"/><path style="fill:#cbeffe;fill-opacity:1;fill-rule:nonzero;stroke:none" d="m0 0-4.953-2.001L4.245-1 0 0Z" transform="translate(95.285 47.85)"/><path style="fill:none;stroke:#19a5ea;stroke-width:1;stroke-linecap:round;stroke-linejoin:miter;stroke-miterlimit:10;stroke-dasharray:none;stroke-opacity:1" d="M0 0c11.124-12.784 19.124-11.159 31.499-10.284" transform="translate(96.626 167.784)"/><path style="fill:none;stroke:#19a5ea;stroke-width:1;stroke-linecap:round;stroke-linejoin:miter;stroke-miterlimit:10;stroke-dasharray:none;stroke-opacity:1" d="M0 0c1.5-13.5 8-30.625 13.875-41.625" transform="translate(128.125 157.5)"/><path style="fill:none;stroke:#19a5ea;stroke-width:1;stroke-linecap:round;stroke-linejoin:miter;stroke-miterlimit:10;stroke-dasharray:none;stroke-opacity:1" d="M0 0c-9.141.356-10.223.849-18.338 3.095" transform="translate(142.64 101.728)"/><path style="fill:none;stroke:#19a5ea;stroke-width:1;stroke-linecap:round;stroke-linejoin:miter;stroke-miterlimit:10;stroke-dasharray:none;stroke-opacity:1" d="M0 0c3.853-21.281 17.282-42.885 27.676-62.961" transform="translate(96.626 167.784)"/><path style="fill:none;stroke:#19a5ea;stroke-width:1;stroke-linecap:round;stroke-linejoin:miter;stroke-miterlimit:10;stroke-dasharray:none;stroke-opacity:1" d="M0 0c-9.009-5.255-21.284-10.988-30.74-16.659a96.775 96.775 0 0 1-4.753-3.023" transform="translate(63.802 71.686)"/><path style="fill:none;stroke:#19a5ea;stroke-width:1;stroke-linecap:round;stroke-linejoin:miter;stroke-miterlimit:10;stroke-dasharray:none;stroke-opacity:1" d="M0 0a156.464 156.464 0 0 1 6.106-1.502c9.464-2.147 18.929-3.625 28.392-6.901" transform="translate(27.866 51.562)"/><path style="fill:none;stroke:#19a5ea;stroke-width:1;stroke-linecap:round;stroke-linejoin:miter;stroke-miterlimit:10;stroke-dasharray:none;stroke-opacity:1" d="m0 0 6.499 4.731" transform="translate(63.249 43.159)"/><path style="fill:none;stroke:#19a5ea;stroke-width:1;stroke-linecap:round;stroke-linejoin:miter;stroke-miterlimit:10;stroke-dasharray:none;stroke-opacity:1" d="m0 0-4.501 1.57" transform="translate(68.303 70.116)"/><path style="fill:none;stroke:#19a5ea;stroke-width:1;stroke-linecap:round;stroke-linejoin:miter;stroke-miterlimit:10;stroke-dasharray:none;stroke-opacity:1" d="M0 0c0-14 1.282-23.583 9.282-35.083" transform="translate(77 171)"/><path style="fill:none;stroke:#19a5ea;stroke-width:1;stroke-linecap:round;stroke-linejoin:miter;stroke-miterlimit:10;stroke-dasharray:none;stroke-opacity:1" d="M0 0c-6.5 7.5-13.282 10.583-22.282 15.083" transform="translate(86.282 135.917)"/><path style="fill:none;stroke:#19a5ea;stroke-width:1;stroke-linecap:round;stroke-linejoin:miter;stroke-miterlimit:10;stroke-dasharray:none;stroke-opacity:1" d="M0 0c-1 11 3.875 27.769-2.625 35.537" transform="translate(64 151)"/><path style="fill:none;stroke:#19a5ea;stroke-width:1;stroke-linecap:round;stroke-linejoin:miter;stroke-miterlimit:10;stroke-dasharray:none;stroke-opacity:1" d="M0 0c7-.537 14.375-11.787 15.625-15.537" transform="translate(61.375 186.537)"/><path style="fill:none;stroke:#19a5ea;stroke-width:1;stroke-linecap:round;stroke-linejoin:miter;stroke-miterlimit:10;stroke-dasharray:none;stroke-opacity:1" d="M0 0c-1.333-9.667 13.096-21.012 21.43-22.345" transform="translate(46.487 140.708)"/><path style="fill:none;stroke:#19a5ea;stroke-width:1;stroke-linecap:round;stroke-linejoin:miter;stroke-miterlimit:10;stroke-dasharray:none;stroke-opacity:1" d="M0 0c-1.334 3.666-2.237 5.322-4.237 8.655M0 0c-19.508 1.127-37.334 11.333-46.334 24.333" transform="translate(72.154 109.709)"/><path style="fill:none;stroke:#19a5ea;stroke-width:1;stroke-linecap:round;stroke-linejoin:miter;stroke-miterlimit:10;stroke-dasharray:none;stroke-opacity:1" d="M0 0c6 3 14 7.667 20.667 8" transform="translate(25.82 134.042)"/><path style="fill:none;stroke:#19a5ea;stroke-width:1;stroke-linecap:round;stroke-linejoin:miter;stroke-miterlimit:10;stroke-dasharray:none;stroke-opacity:1" d="M0 0c-9.009-5.255-21.284-10.988-30.74-16.659a96.346 96.346 0 0 1-4.754-3.023" transform="translate(76.65 74.707)"/><path style="fill:none;stroke:#19a5ea;stroke-width:1;stroke-linecap:round;stroke-linejoin:miter;stroke-miterlimit:10;stroke-dasharray:none;stroke-opacity:1" d="M0 0a156.464 156.464 0 0 1 6.106-1.502c9.464-2.147 18.929-3.625 28.393-6.901" transform="translate(40.715 54.584)"/><path style="fill:none;stroke:#19a5ea;stroke-width:1;stroke-linecap:round;stroke-linejoin:miter;stroke-miterlimit:10;stroke-dasharray:none;stroke-opacity:1" d="m0 0 1.657 1.271" transform="translate(76.098 46.102)"/><path style="fill:none;stroke:#19a5ea;stroke-width:1;stroke-linecap:round;stroke-linejoin:miter;stroke-miterlimit:10;stroke-dasharray:none;stroke-opacity:1" d="M0 0c-12.827 1.327-2.865.487-15.25 4.025" transform="translate(91.9 70.683)"/><path style="fill:none;stroke:#19a5ea;stroke-width:1;stroke-linecap:round;stroke-linejoin:miter;stroke-miterlimit:10;stroke-dasharray:none;stroke-opacity:1" d="M0 0c-.716-.413-1.419-.826-2.107-1.239a97.092 97.092 0 0 1-4.754-3.023" transform="translate(67.809 57.815)"/><path style="fill:none;stroke:#19a5ea;stroke-width:1;stroke-linecap:round;stroke-linejoin:miter;stroke-miterlimit:10;stroke-dasharray:none;stroke-opacity:1" d="M0 0c-3.498-2.041-7.488-4.153-11.614-6.306" transform="translate(96.441 73.234)"/><path style="fill:none;stroke:#19a5ea;stroke-width:1;stroke-linecap:round;stroke-linejoin:miter;stroke-miterlimit:10;stroke-dasharray:none;stroke-opacity:1" d="M0 0a156.464 156.464 0 0 1 6.106-1.502c7.577-1.719 15.155-3.009 22.732-5.137 1.887-.53 4.327.237 5.661 1.418" transform="translate(60.505 53.11)"/><path style="fill:none;stroke:#19a5ea;stroke-width:1;stroke-linecap:round;stroke-linejoin:miter;stroke-miterlimit:10;stroke-dasharray:none;stroke-opacity:1" d="M0 0c4.909 3.401 10.043 6.59 15.859 9.29" transform="translate(112.316 56.647)"/><path style="fill:none;stroke:#19a5ea;stroke-width:1;stroke-linecap:round;stroke-linejoin:miter;stroke-miterlimit:10;stroke-dasharray:none;stroke-opacity:1" d="M0 0c1.467-.836 3.066-.636 4.571.471 1.145.841 2.282 1.684 3.416 2.524" transform="translate(95.889 47.544)"/><path style="fill:none;stroke:#19a5ea;stroke-width:1;stroke-linecap:round;stroke-linejoin:miter;stroke-miterlimit:10;stroke-dasharray:none;stroke-opacity:1" d="M0 0c-12.826 1.327-19.792 3.759-32.176 7.298" transform="translate(128.12 65.936)"/><path style="fill:none;stroke:#19a5ea;stroke-width:1;stroke-linecap:round;stroke-linejoin:miter;stroke-miterlimit:10;stroke-dasharray:none;stroke-opacity:1" d="M0 0c-17-5.667-33.666-5.333-51-3" transform="translate(180.532 64.994)"/><path style="fill:none;stroke:#19a5ea;stroke-width:1;stroke-linecap:round;stroke-linejoin:miter;stroke-miterlimit:10;stroke-dasharray:none;stroke-opacity:1" d="M0 0c5.666-7.667 13.333-12.667 17.666-21.334" transform="translate(128.866 62.327)"/><path style="fill:none;stroke:#19a5ea;stroke-width:1;stroke-linecap:round;stroke-linejoin:miter;stroke-miterlimit:10;stroke-dasharray:none;stroke-opacity:1" d="M0 0c18.667 4 37.333 6 56.333 8.333" transform="translate(147.2 40.327)"/><path style="fill:none;stroke:#19a5ea;stroke-width:1;stroke-linecap:round;stroke-linejoin:miter;stroke-miterlimit:10;stroke-dasharray:none;stroke-opacity:1" d="M0 0c-5.333 7-15.333 9.333-21.667 15" transform="translate(204.2 48.66)"/><path style="fill:#f2f2f2;fill-opacity:1;fill-rule:nonzero;stroke:none" d="m0 0-2.84-2.31 33.082-4.913L0 0Z" transform="translate(30.706 50.382)"/><path style="fill:#f2f2f2;fill-opacity:1;fill-rule:nonzero;stroke:none" d="M0 0s-2.583-4.917-.162-8.242c1.113-1.529 16.321-5.841 16.321-5.841s-1.26 1.943-1.576 2.739c-.307.774-.916 3.541-.916 3.541C7.48-7.042 0 0 0 0" transform="translate(53.322 125.405)"/><path style="fill:#f2f2f2;fill-opacity:1;fill-rule:nonzero;stroke:none" d="m0 0-2.958 2.5s2.75-13.457 5.875-15.1l4.25-.507s-3.62 4.667-5.6 9.042C1.14-3.121 0 0 0 0" transform="translate(132.291 115.875)"/><path style="fill:none;stroke:#19a5ea;stroke-width:1;stroke-linecap:round;stroke-linejoin:miter;stroke-miterlimit:10;stroke-dasharray:none;stroke-opacity:1" d="M0 0c3.25-2.25 8-3.75 12-4" transform="translate(46 108)"/><path style="fill:none;stroke:#19a5ea;stroke-width:1;stroke-linecap:round;stroke-linejoin:miter;stroke-miterlimit:10;stroke-dasharray:none;stroke-opacity:1" d="M0 0c3.458-1.538 8.408-2.657 8.326-2.657" transform="translate(46 103.632)"/><path style="fill:none;stroke:#19a5ea;stroke-width:1;stroke-linecap:round;stroke-linejoin:miter;stroke-miterlimit:10;stroke-dasharray:none;stroke-opacity:1" d="M0 0c-2.5-1.5-5.25-3-8-4" transform="translate(35.443 144.042)"/><path style="fill:none;stroke:#19a5ea;stroke-width:1;stroke-linecap:round;stroke-linejoin:miter;stroke-miterlimit:10;stroke-dasharray:none;stroke-opacity:1" d="M0 0c-2.402-1.682-2.985-2.167-5.485-2.917" transform="translate(34.185 146.958)"/><path style="fill:none;stroke:#19a5ea;stroke-width:1;stroke-linecap:round;stroke-linejoin:miter;stroke-miterlimit:10;stroke-dasharray:none;stroke-opacity:1" d="M0 0c.818-1.25 1.5-1.75 2.25-2.5" transform="translate(77 179.034)"/><path style="fill:none;stroke:#19a5ea;stroke-width:1;stroke-linecap:round;stroke-linejoin:miter;stroke-miterlimit:33;stroke-dasharray:8,4,2,3,55,4;stroke-dashoffset:0;stroke-opacity:1" d="M0 0c-.185-2.656-5.989-4.415-12.964-3.93-6.975.485-12.48 3.031-12.295 5.687.184 2.655 5.988 4.415 12.964 3.93C-5.32 5.202.185 2.656 0 0Z" transform="translate(95.06 60.036)"/><path style="fill:none;stroke:#19a5ea;stroke-width:1;stroke-linecap:round;stroke-linejoin:miter;stroke-miterlimit:33;stroke-dasharray:8,4,2,3,55,4;stroke-dashoffset:0;stroke-opacity:1" d="M0 0c.082-.249-.185-2.257-.203-2.511-.184-2.656-5.989-4.416-12.964-3.93-6.975.485-12.48 3.03-12.295 5.687.006.089.019.176.037.263.038.177.079 2.081.166 2.248" transform="translate(95.06 60.036)"/><path style="fill:#cbeffe;fill-opacity:1;fill-rule:nonzero;stroke:#cbeffe;stroke-width:2;stroke-linecap:round;stroke-linejoin:miter;stroke-miterlimit:33;stroke-dasharray:none;stroke-opacity:1" d="m0 0 1.245-.272" transform="translate(94.773 56.563)"/><path style="fill:#cbeffe;fill-opacity:1;fill-rule:nonzero;stroke:none" d="M0 0c-.166-2.199-5.09-3.619-10.998-3.173-5.909.445-10.563 2.59-10.398 4.788.167 2.199 5.53 3.476 11.438 3.029 0 0-9.346-3.068-3.303-5.267C-3.648-4.123 0 0 0 0" transform="translate(92.562 60.293)"/><path style="fill:none;stroke:#19a5ea;stroke-width:1;stroke-linecap:round;stroke-linejoin:round;stroke-miterlimit:33;stroke-dasharray:none;stroke-opacity:1" d="m0 0-17.225 2.905s-.92.336-.781 1.964c.111 1.327 1.384 1.464 1.384 1.464L.56 3.443 0 0Z" transform="translate(114.776 51.274)"/><path style="fill:#cbeffe;fill-opacity:1;fill-rule:nonzero;stroke:none" d="M0 0c-.112-1.329-.878-2.348-1.709-2.278-.833.07-1.417 1.205-1.305 2.533.113 1.327.878 2.347 1.711 2.277C-.471 2.461.112 1.327 0 0" transform="translate(117.236 52.774)"/><path style="fill:#f2f2f2;fill-opacity:1;fill-rule:nonzero;stroke:none" d="M0 0c.525-.216 2.117-.217 1.646-.523C-.11-1.666-7.086-2.932-12.107-2.616c-6.367.402-11.447 2.018-11.347 3.613 0 0 5.043-2.217 11.41-2.617 2.855-.179 5.491.037 7.531.329A18.038 18.038 0 0 1 0 0" transform="translate(94.02 54.218)"/><path style="fill:#f2f2f2;fill-opacity:1;fill-rule:nonzero;stroke:none" d="m0 0-20.538 3.615 1.367 1.31L1.785 1.379 0 0Z" transform="translate(113.944 49.113)"/></g><g clip-path="url(#d)" transform="matrix(1.25 0 0 -1.25 0 299.375)"><path style="fill:#cbeffe;fill-opacity:1;fill-rule:nonzero;stroke:none" d="M0 0c-3.344.156-5.876-17.088 9.713-9.219 0 0-5.56.354-6.966 1.471C.747-6.16 0 0 0 0" transform="translate(78.503 97.41)"/><path style="fill:#cbeffe;fill-opacity:1;fill-rule:nonzero;stroke:none" d="m0 0-1.938-6.17 66.626 3.085L60.305 0H0Z" transform="translate(89.438 92.303)"/><path style="fill:#cbeffe;fill-opacity:1;fill-rule:nonzero;stroke:none" d="M0 0h20.21l2.5 1.782 1 3.125L1.875 2.985 0 0Z" transform="translate(195 89.318)"/><path style="fill:none;stroke:#19a5ea;stroke-width:2;stroke-linecap:round;stroke-linejoin:miter;stroke-miterlimit:10;stroke-dasharray:none;stroke-opacity:1" d="M0 0h-15.75" transform="translate(216.5 98)"/><path style="fill:none;stroke:#19a5ea;stroke-width:2;stroke-linecap:round;stroke-linejoin:miter;stroke-miterlimit:10;stroke-dasharray:none;stroke-opacity:1" d="M0 0c6.508.959 5.633 9.048 2.258 9.298" transform="translate(214.242 88.702)"/><path style="fill:none;stroke:#19a5ea;stroke-width:2;stroke-linecap:round;stroke-linejoin:miter;stroke-miterlimit:10;stroke-dasharray:none;stroke-opacity:1" d="M0 0c6.218 0 15.511-.305 20.075 0" transform="translate(194.167 88.702)"/><path style="fill:none;stroke:#19a5ea;stroke-width:2;stroke-linecap:round;stroke-linejoin:miter;stroke-miterlimit:10;stroke-dasharray:none;stroke-opacity:1" d="M0 0c19.333 1.333 49.667 2.845 69 2.845" transform="translate(84.5 85.655)"/><path style="fill:none;stroke:#19a5ea;stroke-width:2;stroke-linecap:round;stroke-linejoin:miter;stroke-miterlimit:10;stroke-dasharray:none;stroke-opacity:1" d="M0 0c-8 1.667-11-11.667-3-13.333C7-15.333 8.667-2 0 0" transform="translate(83.834 99)"/><path style="fill:none;stroke:#19a5ea;stroke-width:2;stroke-linecap:round;stroke-linejoin:miter;stroke-miterlimit:10;stroke-dasharray:none;stroke-opacity:1" d="M0 0c-22.334.333-40.167 2.5-62.5 2.5" transform="translate(147 96.5)"/><path style="fill:none;stroke:#19a5ea;stroke-width:.75;stroke-linecap:round;stroke-linejoin:miter;stroke-miterlimit:10;stroke-dasharray:none;stroke-opacity:1" d="M0 0c2.5 1.167 4 4.148 4 6.648.167 3.333-1.583 6.53-4.75 7.53" transform="translate(95.584 85.655)"/><path style="fill:none;stroke:#19a5ea;stroke-width:.75;stroke-linecap:round;stroke-linejoin:miter;stroke-miterlimit:10;stroke-dasharray:none;stroke-opacity:1" d="M0 0c0 9.333.458 103.667.292 108.167" transform="translate(94.834 99.834)"/><path style="fill:none;stroke:#19a5ea;stroke-width:.75;stroke-linecap:round;stroke-linejoin:miter;stroke-miterlimit:10;stroke-dasharray:none;stroke-opacity:1" d="M0 0c.25 4.083-7.768 10.652-8.602 5.902-.583-3.833 5.084-6 7.917-6.833M0 0c.518 1.22 1.664 2.256 2.81 2.884.703.408 1.442.74 2.256.814.74.037 1.701-.444 1.923-1.183C7.359 1.257 5.88-.074 4.844-.37 3.587-.74 1.849-.999.518-.961" transform="translate(95.12 99.455)"/><path style="fill:none;stroke:#19a5ea;stroke-width:.75;stroke-linecap:round;stroke-linejoin:miter;stroke-miterlimit:10;stroke-dasharray:none;stroke-opacity:1" d="M0 0c2.5 1.167 3.507 3.103 3.937 4.782.827 3.234-.258 5.988-3.424 6.988" transform="translate(207.398 88.569)"/><path style="fill:none;stroke:#19a5ea;stroke-width:.75;stroke-linecap:round;stroke-linejoin:miter;stroke-miterlimit:10;stroke-dasharray:none;stroke-opacity:1" d="M0 0c0 9.333-14.761 98.826-14.927 103.326" transform="translate(209.927 99.674)"/><path style="fill:none;stroke:#19a5ea;stroke-width:.75;stroke-linecap:round;stroke-linejoin:miter;stroke-miterlimit:10;stroke-dasharray:none;stroke-opacity:1" d="M0 0c.108 1.784-3.394 4.654-3.758 2.579C-4.013.904-1.537-.042-.299-.407" transform="translate(210.089 99.192)"/><path style="fill:none;stroke:#19a5ea;stroke-width:.75;stroke-linecap:round;stroke-linejoin:miter;stroke-miterlimit:10;stroke-dasharray:none;stroke-opacity:1" d="M0 0c.518 1.22.437 3.019 1.583 3.647.703.408 1.27 1.553 2.083 1.626.74.038 1.546-.059 1.768-.798.37-1.258-1.109-2.589-2.145-2.885C2.032 1.22.294.961-1.038.999" transform="translate(209.751 98)"/></g></svg>